# xmcd
#
# Track frame offsets: 
#        150
#        17320
#        28405
#        48975
#        71000
#        91160
#        109735
#        132262
#        153485
#        171500
#        183577
#        199812
#        204325
#        217857
#        230315
#
# Disc length: 3277 seconds
#
# Revision: 3
# Processed by: cddbd v1.5.2PL0 Copyright (c) Steve Scherf et al.
# Submitted via: ExactAudioCopy v1.0b3
#
DISCID=cb0ccb0f
DTITLE=Blues 'N' Trouble - Down To The Shuffle
DYEAR=1991
DGENRE=Bluesrock
TTITLE0=Why Why Why
TTITLE1=Tore Up
TTITLE2=Sleeping In The Ground
TTITLE3=Hooked On You
TTITLE4=Statesboro Blues
TTITLE5=Emilia Jane
TTITLE6=Papa Lou's Boogie Woogie
TTITLE7=Stay With Me
TTITLE8=Fool No More
TTITLE9=Bring It On Home
TTITLE10=Down To The Shuffle
TTITLE11=King Tut's Wah Wah Hut
TTITLE12=You Missed A Good Man
TTITLE13=Rats Crawlin' 'Cross My Face
TTITLE14=Tribute To Kees
EXTD=
EXTT0=
EXTT1=
EXTT2=
EXTT3=
EXTT4=
EXTT5=
EXTT6=
EXTT7=
EXTT8=
EXTT9=
EXTT10=
EXTT11=
EXTT12=
EXTT13=
EXTT14=
PLAYORDER=
